<svg width="762" height="368" viewBox="0 0 762 368" fill="none" xmlns="http://www.w3.org/2000/svg">
<path d="M95.6269 28.55V42.59H78.7069V92H61.0669V42.59H44.3269V28.55H95.6269ZM135.363 41.06C141.123 41.06 145.683 43.01 149.043 46.91C152.463 50.75 154.173 55.97 154.173 62.57V92H136.533V64.91C136.533 62.03 135.783 59.78 134.283 58.16C132.783 56.48 130.773 55.64 128.253 55.64C125.613 55.64 123.543 56.48 122.043 58.16C120.543 59.78 119.793 62.03 119.793 64.91V92H102.153V25.4H119.793V48.71C121.353 46.43 123.453 44.6 126.093 43.22C128.793 41.78 131.883 41.06 135.363 41.06ZM212.093 66.17C212.093 67.55 212.003 68.93 211.823 70.31H178.433C178.613 73.07 179.363 75.14 180.683 76.52C182.063 77.84 183.803 78.5 185.903 78.5C188.843 78.5 190.943 77.18 192.203 74.54H211.013C210.233 78.02 208.703 81.14 206.423 83.9C204.203 86.6 201.383 88.73 197.963 90.29C194.543 91.85 190.763 92.63 186.623 92.63C181.643 92.63 177.203 91.58 173.303 89.48C169.463 87.38 166.433 84.38 164.213 80.48C162.053 76.58 160.973 71.99 160.973 66.71C160.973 61.43 162.053 56.87 164.213 53.03C166.373 49.13 169.373 46.13 173.213 44.03C177.113 41.93 181.583 40.88 186.623 40.88C191.603 40.88 196.013 41.9 199.853 43.94C203.693 45.98 206.693 48.92 208.853 52.76C211.013 56.54 212.093 61.01 212.093 66.17ZM194.093 61.76C194.093 59.6 193.373 57.92 191.933 56.72C190.493 55.46 188.693 54.83 186.533 54.83C184.373 54.83 182.603 55.43 181.223 56.63C179.843 57.77 178.943 59.48 178.523 61.76H194.093ZM528.15 41.51L515.28 92H495.48L488.46 61.4L481.17 92H461.46L448.68 41.51H466.23L471.9 74.99L479.37 41.51H498.27L506.01 75.08L511.59 41.51H528.15ZM581.409 66.17C581.409 67.55 581.319 68.93 581.139 70.31H547.749C547.929 73.07 548.679 75.14 549.999 76.52C551.379 77.84 553.119 78.5 555.219 78.5C558.159 78.5 560.259 77.18 561.519 74.54H580.329C579.549 78.02 578.019 81.14 575.739 83.9C573.519 86.6 570.699 88.73 567.279 90.29C563.859 91.85 560.079 92.63 555.939 92.63C550.959 92.63 546.519 91.58 542.619 89.48C538.779 87.38 535.749 84.38 533.529 80.48C531.369 76.58 530.289 71.99 530.289 66.71C530.289 61.43 531.369 56.87 533.529 53.03C535.689 49.13 538.689 46.13 542.529 44.03C546.429 41.93 550.899 40.88 555.939 40.88C560.919 40.88 565.329 41.9 569.169 43.94C573.009 45.98 576.009 48.92 578.169 52.76C580.329 56.54 581.409 61.01 581.409 66.17ZM563.409 61.76C563.409 59.6 562.689 57.92 561.249 56.72C559.809 55.46 558.009 54.83 555.849 54.83C553.689 54.83 551.919 55.43 550.539 56.63C549.159 57.77 548.259 59.48 547.839 61.76H563.409ZM624.484 40.88C627.904 40.88 630.874 41.57 633.394 42.95C635.974 44.33 637.954 46.19 639.334 48.53V41.51H656.974V91.46C656.974 96.2 656.074 100.46 654.274 104.24C652.474 108.08 649.654 111.14 645.814 113.42C642.034 115.7 637.234 116.84 631.414 116.84C623.614 116.84 617.374 115.01 612.694 111.35C608.014 107.69 605.344 102.71 604.684 96.41H622.054C622.414 98.03 623.314 99.29 624.754 100.19C626.194 101.09 628.054 101.54 630.334 101.54C636.334 101.54 639.334 98.18 639.334 91.46V84.98C637.954 87.32 635.974 89.18 633.394 90.56C630.874 91.94 627.904 92.63 624.484 92.63C620.464 92.63 616.804 91.58 613.504 89.48C610.264 87.38 607.684 84.38 605.764 80.48C603.904 76.52 602.974 71.93 602.974 66.71C602.974 61.49 603.904 56.93 605.764 53.03C607.684 49.13 610.264 46.13 613.504 44.03C616.804 41.93 620.464 40.88 624.484 40.88ZM639.334 66.71C639.334 63.47 638.434 60.92 636.634 59.06C634.894 57.2 632.734 56.27 630.154 56.27C627.514 56.27 625.324 57.2 623.584 59.06C621.844 60.86 620.974 63.41 620.974 66.71C620.974 69.95 621.844 72.53 623.584 74.45C625.324 76.31 627.514 77.24 630.154 77.24C632.734 77.24 634.894 76.31 636.634 74.45C638.434 72.59 639.334 70.01 639.334 66.71ZM690.516 92.63C685.476 92.63 680.946 91.58 676.926 89.48C672.966 87.38 669.846 84.38 667.566 80.48C665.286 76.58 664.146 71.99 664.146 66.71C664.146 61.49 665.286 56.93 667.566 53.03C669.906 49.13 673.056 46.13 677.016 44.03C681.036 41.93 685.566 40.88 690.606 40.88C695.646 40.88 700.146 41.93 704.106 44.03C708.126 46.13 711.276 49.13 713.556 53.03C715.896 56.93 717.066 61.49 717.066 66.71C717.066 71.93 715.896 76.52 713.556 80.48C711.276 84.38 708.126 87.38 704.106 89.48C700.086 91.58 695.556 92.63 690.516 92.63ZM690.516 77.33C692.976 77.33 695.016 76.43 696.636 74.63C698.316 72.77 699.156 70.13 699.156 66.71C699.156 63.29 698.316 60.68 696.636 58.88C695.016 57.08 693.006 56.18 690.606 56.18C688.206 56.18 686.196 57.08 684.576 58.88C682.956 60.68 682.146 63.29 682.146 66.71C682.146 70.19 682.926 72.83 684.486 74.63C686.046 76.43 688.056 77.33 690.516 77.33ZM7.20785 186.71C7.20785 181.49 8.13785 176.93 9.99785 173.03C11.9179 169.13 14.4979 166.13 17.7379 164.03C21.0379 161.93 24.6979 160.88 28.7179 160.88C32.1979 160.88 35.1979 161.57 37.7179 162.95C40.2379 164.33 42.1879 166.19 43.5679 168.53V161.51H61.2079V212H43.5679V204.98C42.1879 207.32 40.2079 209.18 37.6279 210.56C35.1079 211.94 32.1379 212.63 28.7179 212.63C24.6979 212.63 21.0379 211.58 17.7379 209.48C14.4979 207.38 11.9179 204.38 9.99785 200.48C8.13785 196.52 7.20785 191.93 7.20785 186.71ZM43.5679 186.71C43.5679 183.47 42.6679 180.92 40.8679 179.06C39.1279 177.2 36.9679 176.27 34.3879 176.27C31.7479 176.27 29.5579 177.2 27.8179 179.06C26.0779 180.86 25.2079 183.41 25.2079 186.71C25.2079 189.95 26.0779 192.53 27.8179 194.45C29.5579 196.31 31.7479 197.24 34.3879 197.24C36.9679 197.24 39.1279 196.31 40.8679 194.45C42.6679 192.59 43.5679 190.01 43.5679 186.71ZM104.47 161.06C110.23 161.06 114.79 163.01 118.15 166.91C121.57 170.75 123.28 175.97 123.28 182.57V212H105.64V184.91C105.64 182.03 104.89 179.78 103.39 178.16C101.89 176.48 99.8797 175.64 97.3597 175.64C94.7197 175.64 92.6497 176.48 91.1497 178.16C89.6497 179.78 88.8997 182.03 88.8997 184.91V212H71.2597V145.4H88.8997V168.71C90.4597 166.43 92.5597 164.6 95.1997 163.22C97.8997 161.78 100.99 161.06 104.47 161.06ZM181.199 186.17C181.199 187.55 181.109 188.93 180.929 190.31H147.539C147.719 193.07 148.469 195.14 149.789 196.52C151.169 197.84 152.909 198.5 155.009 198.5C157.949 198.5 160.049 197.18 161.309 194.54H180.119C179.339 198.02 177.809 201.14 175.529 203.9C173.309 206.6 170.489 208.73 167.069 210.29C163.649 211.85 159.869 212.63 155.729 212.63C150.749 212.63 146.309 211.58 142.409 209.48C138.569 207.38 135.539 204.38 133.319 200.48C131.159 196.58 130.079 191.99 130.079 186.71C130.079 181.43 131.159 176.87 133.319 173.03C135.479 169.13 138.479 166.13 142.319 164.03C146.219 161.93 150.689 160.88 155.729 160.88C160.709 160.88 165.119 161.9 168.959 163.94C172.799 165.98 175.799 168.92 177.959 172.76C180.119 176.54 181.199 181.01 181.199 186.17ZM163.199 181.76C163.199 179.6 162.479 177.92 161.039 176.72C159.599 175.46 157.799 174.83 155.639 174.83C153.479 174.83 151.709 175.43 150.329 176.63C148.949 177.77 148.049 179.48 147.629 181.76H163.199ZM185.538 186.71C185.538 181.49 186.468 176.93 188.328 173.03C190.248 169.13 192.828 166.13 196.068 164.03C199.368 161.93 203.028 160.88 207.048 160.88C210.528 160.88 213.528 161.57 216.048 162.95C218.568 164.33 220.518 166.19 221.898 168.53V161.51H239.538V212H221.898V204.98C220.518 207.32 218.538 209.18 215.958 210.56C213.438 211.94 210.468 212.63 207.048 212.63C203.028 212.63 199.368 211.58 196.068 209.48C192.828 207.38 190.248 204.38 188.328 200.48C186.468 196.52 185.538 191.93 185.538 186.71ZM221.898 186.71C221.898 183.47 220.998 180.92 219.198 179.06C217.458 177.2 215.298 176.27 212.718 176.27C210.078 176.27 207.888 177.2 206.148 179.06C204.408 180.86 203.538 183.41 203.538 186.71C203.538 189.95 204.408 192.53 206.148 194.45C207.888 196.31 210.078 197.24 212.718 197.24C215.298 197.24 217.458 196.31 219.198 194.45C220.998 192.59 221.898 190.01 221.898 186.71ZM246.71 186.71C246.71 181.49 247.64 176.93 249.5 173.03C251.42 169.13 254.03 166.13 257.33 164.03C260.63 161.93 264.29 160.88 268.31 160.88C271.55 160.88 274.43 161.57 276.95 162.95C279.53 164.27 281.54 166.1 282.98 168.44V145.4H300.71V212H282.98V204.98C281.6 207.32 279.65 209.18 277.13 210.56C274.61 211.94 271.64 212.63 268.22 212.63C264.2 212.63 260.54 211.58 257.24 209.48C254 207.38 251.42 204.38 249.5 200.48C247.64 196.52 246.71 191.93 246.71 186.71ZM283.07 186.71C283.07 183.47 282.17 180.92 280.37 179.06C278.63 177.2 276.47 176.27 273.89 176.27C271.25 176.27 269.06 177.2 267.32 179.06C265.58 180.86 264.71 183.41 264.71 186.71C264.71 189.95 265.58 192.53 267.32 194.45C269.06 196.31 271.25 197.24 273.89 197.24C276.47 197.24 278.63 196.31 280.37 194.45C282.17 192.59 283.07 190.01 283.07 186.71ZM329.752 196.88L320.122 223.16H308.962L313.642 196.88H329.752ZM404.079 148.55V162.59H387.159V212H369.519V162.59H352.779V148.55H404.079ZM443.815 161.06C449.575 161.06 454.135 163.01 457.495 166.91C460.915 170.75 462.625 175.97 462.625 182.57V212H444.985V184.91C444.985 182.03 444.235 179.78 442.735 178.16C441.235 176.48 439.225 175.64 436.705 175.64C434.065 175.64 431.995 176.48 430.495 178.16C428.995 179.78 428.245 182.03 428.245 184.91V212H410.605V145.4H428.245V168.71C429.805 166.43 431.905 164.6 434.545 163.22C437.245 161.78 440.335 161.06 443.815 161.06ZM520.545 186.17C520.545 187.55 520.455 188.93 520.275 190.31H486.885C487.065 193.07 487.815 195.14 489.135 196.52C490.515 197.84 492.255 198.5 494.355 198.5C497.295 198.5 499.395 197.18 500.655 194.54H519.465C518.685 198.02 517.155 201.14 514.875 203.9C512.655 206.6 509.835 208.73 506.415 210.29C502.995 211.85 499.215 212.63 495.075 212.63C490.095 212.63 485.655 211.58 481.755 209.48C477.915 207.38 474.885 204.38 472.665 200.48C470.505 196.58 469.425 191.99 469.425 186.71C469.425 181.43 470.505 176.87 472.665 173.03C474.825 169.13 477.825 166.13 481.665 164.03C485.565 161.93 490.035 160.88 495.075 160.88C500.055 160.88 504.465 161.9 508.305 163.94C512.145 165.98 515.145 168.92 517.305 172.76C519.465 176.54 520.545 181.01 520.545 186.17ZM502.545 181.76C502.545 179.6 501.825 177.92 500.385 176.72C498.945 175.46 497.145 174.83 494.985 174.83C492.825 174.83 491.055 175.43 489.675 176.63C488.295 177.77 487.395 179.48 486.975 181.76H502.545ZM266.098 268.55L250.528 332H228.838L220.108 293.12L211.198 332H189.508L174.118 268.55H193.198L200.578 311.93L210.568 268.55H229.918L239.638 311.57L247.018 268.55H266.098ZM321.824 306.17C321.824 307.55 321.734 308.93 321.554 310.31H288.164C288.344 313.07 289.094 315.14 290.414 316.52C291.794 317.84 293.534 318.5 295.634 318.5C298.574 318.5 300.674 317.18 301.934 314.54H320.744C319.964 318.02 318.434 321.14 316.154 323.9C313.934 326.6 311.114 328.73 307.694 330.29C304.274 331.85 300.494 332.63 296.354 332.63C291.374 332.63 286.934 331.58 283.034 329.48C279.194 327.38 276.164 324.38 273.944 320.48C271.784 316.58 270.704 311.99 270.704 306.71C270.704 301.43 271.784 296.87 273.944 293.03C276.104 289.13 279.104 286.13 282.944 284.03C286.844 281.93 291.314 280.88 296.354 280.88C301.334 280.88 305.744 281.9 309.584 283.94C313.424 285.98 316.424 288.92 318.584 292.76C320.744 296.54 321.824 301.01 321.824 306.17ZM303.824 301.76C303.824 299.6 303.104 297.92 301.664 296.72C300.224 295.46 298.424 294.83 296.264 294.83C294.104 294.83 292.334 295.43 290.954 296.63C289.574 297.77 288.674 299.48 288.254 301.76H303.824ZM363.909 318.5H383.619V332H346.269V268.55H363.909V318.5ZM438.718 306.17C438.718 307.55 438.628 308.93 438.448 310.31H405.058C405.238 313.07 405.988 315.14 407.308 316.52C408.688 317.84 410.428 318.5 412.528 318.5C415.468 318.5 417.568 317.18 418.828 314.54H437.638C436.858 318.02 435.328 321.14 433.048 323.9C430.828 326.6 428.008 328.73 424.588 330.29C421.168 331.85 417.388 332.63 413.248 332.63C408.268 332.63 403.828 331.58 399.928 329.48C396.088 327.38 393.058 324.38 390.838 320.48C388.678 316.58 387.598 311.99 387.598 306.71C387.598 301.43 388.678 296.87 390.838 293.03C392.998 289.13 395.998 286.13 399.838 284.03C403.738 281.93 408.208 280.88 413.248 280.88C418.228 280.88 422.638 281.9 426.478 283.94C430.318 285.98 433.318 288.92 435.478 292.76C437.638 296.54 438.718 301.01 438.718 306.17ZM420.718 301.76C420.718 299.6 419.998 297.92 418.558 296.72C417.118 295.46 415.318 294.83 413.158 294.83C410.998 294.83 409.228 295.43 407.848 296.63C406.468 297.77 405.568 299.48 405.148 301.76H420.718ZM443.057 306.71C443.057 301.49 443.987 296.93 445.847 293.03C447.767 289.13 450.347 286.13 453.587 284.03C456.887 281.93 460.547 280.88 464.567 280.88C468.047 280.88 471.047 281.57 473.567 282.95C476.087 284.33 478.037 286.19 479.417 288.53V281.51H497.057V332H479.417V324.98C478.037 327.32 476.057 329.18 473.477 330.56C470.957 331.94 467.987 332.63 464.567 332.63C460.547 332.63 456.887 331.58 453.587 329.48C450.347 327.38 447.767 324.38 445.847 320.48C443.987 316.52 443.057 311.93 443.057 306.71ZM479.417 306.71C479.417 303.47 478.517 300.92 476.717 299.06C474.977 297.2 472.817 296.27 470.237 296.27C467.597 296.27 465.407 297.2 463.667 299.06C461.927 300.86 461.057 303.41 461.057 306.71C461.057 309.95 461.927 312.53 463.667 314.45C465.407 316.31 467.597 317.24 470.237 317.24C472.817 317.24 474.977 316.31 476.717 314.45C478.517 312.59 479.417 310.01 479.417 306.71ZM504.229 306.71C504.229 301.49 505.159 296.93 507.019 293.03C508.939 289.13 511.549 286.13 514.849 284.03C518.149 281.93 521.809 280.88 525.829 280.88C529.069 280.88 531.949 281.57 534.469 282.95C537.049 284.27 539.059 286.1 540.499 288.44V265.4H558.229V332H540.499V324.98C539.119 327.32 537.169 329.18 534.649 330.56C532.129 331.94 529.159 332.63 525.739 332.63C521.719 332.63 518.059 331.58 514.759 329.48C511.519 327.38 508.939 324.38 507.019 320.48C505.159 316.52 504.229 311.93 504.229 306.71ZM540.589 306.71C540.589 303.47 539.689 300.92 537.889 299.06C536.149 297.2 533.989 296.27 531.409 296.27C528.769 296.27 526.579 297.2 524.839 299.06C523.099 300.86 522.229 303.41 522.229 306.71C522.229 309.95 523.099 312.53 524.839 314.45C526.579 316.31 528.769 317.24 531.409 317.24C533.989 317.24 536.149 316.31 537.889 314.45C539.689 312.59 540.589 310.01 540.589 306.71ZM576.831 332.72C573.711 332.72 571.191 331.88 569.271 330.2C567.411 328.46 566.481 326.27 566.481 323.63C566.481 320.99 567.411 318.8 569.271 317.06C571.191 315.32 573.711 314.45 576.831 314.45C579.891 314.45 582.351 315.32 584.211 317.06C586.131 318.8 587.091 320.99 587.091 323.63C587.091 326.21 586.131 328.37 584.211 330.11C582.351 331.85 579.891 332.72 576.831 332.72Z" fill="black"/>
<path d="M311.148 41.51L298.278 92H278.478L271.458 61.4L264.168 92H244.458L231.678 41.51H249.228L254.898 74.99L262.368 41.51H281.268L289.008 75.08L294.588 41.51H311.148ZM313.287 66.71C313.287 61.49 314.217 56.93 316.077 53.03C317.997 49.13 320.577 46.13 323.817 44.03C327.117 41.93 330.777 40.88 334.797 40.88C338.277 40.88 341.277 41.57 343.797 42.95C346.317 44.33 348.267 46.19 349.647 48.53V41.51H367.287V92H349.647V84.98C348.267 87.32 346.287 89.18 343.707 90.56C341.187 91.94 338.217 92.63 334.797 92.63C330.777 92.63 327.117 91.58 323.817 89.48C320.577 87.38 317.997 84.38 316.077 80.48C314.217 76.52 313.287 71.93 313.287 66.71ZM349.647 66.71C349.647 63.47 348.747 60.92 346.947 59.06C345.207 57.2 343.047 56.27 340.467 56.27C337.827 56.27 335.637 57.2 333.897 59.06C332.157 60.86 331.287 63.41 331.287 66.71C331.287 69.95 332.157 72.53 333.897 74.45C335.637 76.31 337.827 77.24 340.467 77.24C343.047 77.24 345.207 76.31 346.947 74.45C348.747 72.59 349.647 70.01 349.647 66.71ZM431.699 41.51L399.659 116.03H380.489L392.549 89.84L371.849 41.51H391.469L402.089 70.13L412.349 41.51H431.699ZM634.36 148.55L618.79 212H597.1L588.37 173.12L579.46 212H557.77L542.38 148.55H561.46L568.84 191.93L578.83 148.55H598.18L607.9 191.57L615.28 148.55H634.36ZM638.966 186.71C638.966 181.49 639.896 176.93 641.756 173.03C643.676 169.13 646.256 166.13 649.496 164.03C652.796 161.93 656.456 160.88 660.476 160.88C663.956 160.88 666.956 161.57 669.476 162.95C671.996 164.33 673.946 166.19 675.326 168.53V161.51H692.966V212H675.326V204.98C673.946 207.32 671.966 209.18 669.386 210.56C666.866 211.94 663.896 212.63 660.476 212.63C656.456 212.63 652.796 211.58 649.496 209.48C646.256 207.38 643.676 204.38 641.756 200.48C639.896 196.52 638.966 191.93 638.966 186.71ZM675.326 186.71C675.326 183.47 674.426 180.92 672.626 179.06C670.886 177.2 668.726 176.27 666.146 176.27C663.506 176.27 661.316 177.2 659.576 179.06C657.836 180.86 656.966 183.41 656.966 186.71C656.966 189.95 657.836 192.53 659.576 194.45C661.316 196.31 663.506 197.24 666.146 197.24C668.726 197.24 670.886 196.31 672.626 194.45C674.426 192.59 675.326 190.01 675.326 186.71ZM757.378 161.51L725.338 236.03H706.168L718.228 209.84L697.528 161.51H717.148L727.768 190.13L738.028 161.51H757.378Z" fill="#DF7901"/>
<path d="M345 349.838C377.5 343 579 346.5 612 364" stroke="#9ADE56" stroke-width="8" stroke-linecap="round"/>
<path d="M344.5 350C516 350 579 350 593 350" stroke="#9ADE56" stroke-width="7" stroke-linecap="round"/>
</svg>
