<svg width="472" height="769" viewBox="0 0 472 769" fill="none" xmlns="http://www.w3.org/2000/svg">
<circle cx="385" cy="178" r="11" fill="black"/>
<path d="M437 712.684C437.788 713.026 439.57 713.335 438.819 712.223C438.56 711.838 437.4 712.069 437 712.069" stroke="black" stroke-width="3" stroke-linecap="round"/>
<path d="M372 713.684C372.788 714.026 374.57 714.335 373.819 713.223C373.56 712.838 372.4 713.069 372 713.069" stroke="black" stroke-opacity="0.8" stroke-width="3" stroke-linecap="round"/>
<path d="M427 741.684C427.788 742.026 429.57 742.335 428.819 741.223C428.56 740.838 427.4 741.069 427 741.069" stroke="#606060" stroke-width="3" stroke-linecap="round"/>
<path d="M429 677.804C429.754 677.936 431.068 678.363 430.997 677.293C430.965 676.801 430.009 677.018 429.856 677.293" stroke="black" stroke-width="2" stroke-linecap="round"/>
<path d="M419 768C419.377 768 420.034 768 419.999 768C419.983 768 419.505 768 419.428 768" stroke="black" stroke-opacity="0.6" stroke-width="2" stroke-linecap="round"/>
<path d="M400 712C401.808 710.125 400.76 711.409 400 711.693" stroke="black" stroke-opacity="0.6" stroke-width="2" stroke-linecap="round"/>
<path d="M457 743C458.808 741.125 457.76 742.409 457 742.693" stroke="black" stroke-opacity="0.6" stroke-width="2" stroke-linecap="round"/>
<path d="M470 714.704C471.557 712.752 470.937 715.548 470.516 714.9" stroke="black" stroke-opacity="0.6" stroke-width="2" stroke-linecap="round"/>
<circle cx="436.5" cy="202.5" r="7.5" fill="black"/>
<circle cx="396" cy="221" r="5" fill="black"/>
<circle cx="355" cy="5" r="5" fill="black"/>
<circle cx="186" cy="221" r="5" fill="black"/>
<circle cx="322" cy="438" r="3" fill="black"/>
<path d="M3 606.813C4.01906 608.118 5.80029 609.76 7.21974 607.985C7.85608 607.19 8.69104 606.507 8.62632 605.407C8.59777 604.921 6.11829 604 5.57873 604C4.16173 604 4.00808 604.797 3.46886 605.875" stroke="black" stroke-width="5" stroke-linecap="round"/>
<circle cx="226" cy="465" r="3" fill="black"/>
<path d="M174.319 665.38C165.159 669.356 176.571 692.338 188.986 676.492C194.069 668.707 178.614 663.516 174.319 665.38Z" stroke="black" stroke-width="8" stroke-linecap="round"/>
</svg>
